<svg xmlns="http://www.w3.org/2000/svg" width="500" height="100" viewBox="0 0 500 100">
  <!-- Background -->
  <rect width="500" height="100" fill="#09090B"/>
  
  <!-- Icon - translated and scaled -->
  <g transform="translate(24, 16) scale(1.0625)">
    <circle cx="32" cy="32" r="27" fill="none" stroke="#E8E4DD" stroke-width="3"/>
    <path d="M32.0 24.0 L34.2 17.2 L29.9 11.1 L32.0 7.0" stroke="#E8E4DD" stroke-width="3" fill="none" stroke-linecap="round" stroke-linejoin="round"/>
    <path d="M37.7 26.3 L44.1 23.1 L45.3 15.7 L49.7 14.3" stroke="#E8E4DD" stroke-width="3" fill="none" stroke-linecap="round" stroke-linejoin="round"/>
    <path d="M40.0 32.0 L46.8 34.2 L52.9 29.9 L57.0 32.0" stroke="#E8E4DD" stroke-width="3" fill="none" stroke-linecap="round" stroke-linejoin="round"/>
    <path d="M37.7 37.7 L40.9 44.1 L48.3 45.3 L49.7 49.7" stroke="#E8E4DD" stroke-width="3" fill="none" stroke-linecap="round" stroke-linejoin="round"/>
    <path d="M32.0 40.0 L29.8 46.8 L34.1 52.9 L32.0 57.0" stroke="#E8E4DD" stroke-width="3" fill="none" stroke-linecap="round" stroke-linejoin="round"/>
    <path d="M26.3 37.7 L19.9 40.9 L18.7 48.3 L14.3 49.7" stroke="#E8E4DD" stroke-width="3" fill="none" stroke-linecap="round" stroke-linejoin="round"/>
    <path d="M24.0 32.0 L17.2 29.8 L11.1 34.1 L7.0 32.0" stroke="#E8E4DD" stroke-width="3" fill="none" stroke-linecap="round" stroke-linejoin="round"/>
    <path d="M26.3 26.3 L23.1 19.9 L15.7 18.7 L14.3 14.3" stroke="#E8E4DD" stroke-width="3" fill="none" stroke-linecap="round" stroke-linejoin="round"/>
    <circle cx="32" cy="32" r="5.5" fill="#E8E4DD"/>
  </g>
  
  <!-- Wordmark -->
  <text x="110" y="62" font-family="Cinzel, Georgia, serif" font-size="28" font-weight="600" fill="#FAFAFA">Forgelight Labs</text>
</svg>